<mxfile host="app.diagrams.net" modified="2023-08-11T21:11:19.096Z" agent="Mozilla/5.0 (Windows NT 10.0; Win64; x64) AppleWebKit/537.36 (KHTML, like Gecko) Chrome/115.0.0.0 Safari/537.36" etag="0TsngzZ7cFUAHSc1gXWH" version="21.6.8" type="github">
  <diagram name="Page-1" id="ZxkpVUzxbEyeKxNiUnp3">
    <mxGraphModel dx="3225" dy="1335" grid="1" gridSize="10" guides="1" tooltips="1" connect="1" arrows="1" fold="1" page="1" pageScale="1" pageWidth="850" pageHeight="1100" math="0" shadow="0">
      <root>
        <mxCell id="0" />
        <mxCell id="1" parent="0" />
        <mxCell id="j49G48L2qvxyTF0GT2EV-17" value="" style="edgeStyle=orthogonalEdgeStyle;rounded=0;orthogonalLoop=1;jettySize=auto;html=1;" edge="1" parent="1" source="j49G48L2qvxyTF0GT2EV-2" target="j49G48L2qvxyTF0GT2EV-6">
          <mxGeometry relative="1" as="geometry">
            <Array as="points" />
          </mxGeometry>
        </mxCell>
        <mxCell id="j49G48L2qvxyTF0GT2EV-18" style="edgeStyle=orthogonalEdgeStyle;rounded=0;orthogonalLoop=1;jettySize=auto;html=1;exitX=0;exitY=0;exitDx=0;exitDy=0;" edge="1" parent="1" source="j49G48L2qvxyTF0GT2EV-2">
          <mxGeometry relative="1" as="geometry">
            <mxPoint x="270.3076923076924" y="190" as="targetPoint" />
          </mxGeometry>
        </mxCell>
        <mxCell id="j49G48L2qvxyTF0GT2EV-19" style="edgeStyle=orthogonalEdgeStyle;rounded=0;orthogonalLoop=1;jettySize=auto;html=1;exitX=0.25;exitY=0;exitDx=0;exitDy=0;entryX=0.5;entryY=1;entryDx=0;entryDy=0;" edge="1" parent="1" source="j49G48L2qvxyTF0GT2EV-2" target="j49G48L2qvxyTF0GT2EV-7">
          <mxGeometry relative="1" as="geometry" />
        </mxCell>
        <mxCell id="j49G48L2qvxyTF0GT2EV-20" style="rounded=0;orthogonalLoop=1;jettySize=auto;html=1;exitX=0;exitY=0.25;exitDx=0;exitDy=0;" edge="1" parent="1" target="j49G48L2qvxyTF0GT2EV-5">
          <mxGeometry relative="1" as="geometry">
            <mxPoint x="180.0000000000001" y="200" as="targetPoint" />
            <mxPoint x="280" y="312.5" as="sourcePoint" />
          </mxGeometry>
        </mxCell>
        <mxCell id="j49G48L2qvxyTF0GT2EV-21" style="rounded=0;orthogonalLoop=1;jettySize=auto;html=1;exitX=0;exitY=0.25;exitDx=0;exitDy=0;entryX=1;entryY=0.778;entryDx=0;entryDy=0;entryPerimeter=0;" edge="1" parent="1" source="j49G48L2qvxyTF0GT2EV-2">
          <mxGeometry relative="1" as="geometry">
            <mxPoint x="260" y="312.5" as="sourcePoint" />
            <mxPoint x="140.0000000000001" y="260.02" as="targetPoint" />
          </mxGeometry>
        </mxCell>
        <mxCell id="j49G48L2qvxyTF0GT2EV-22" style="edgeStyle=orthogonalEdgeStyle;rounded=0;orthogonalLoop=1;jettySize=auto;html=1;exitX=0;exitY=1;exitDx=0;exitDy=0;entryX=1;entryY=0.5;entryDx=0;entryDy=0;" edge="1" parent="1" source="j49G48L2qvxyTF0GT2EV-2" target="j49G48L2qvxyTF0GT2EV-10">
          <mxGeometry relative="1" as="geometry">
            <mxPoint x="170.0000000000001" y="490" as="targetPoint" />
          </mxGeometry>
        </mxCell>
        <mxCell id="j49G48L2qvxyTF0GT2EV-24" style="edgeStyle=orthogonalEdgeStyle;rounded=0;orthogonalLoop=1;jettySize=auto;html=1;exitX=0.5;exitY=1;exitDx=0;exitDy=0;entryX=0.382;entryY=0.031;entryDx=0;entryDy=0;entryPerimeter=0;" edge="1" parent="1" source="j49G48L2qvxyTF0GT2EV-2" target="j49G48L2qvxyTF0GT2EV-23">
          <mxGeometry relative="1" as="geometry" />
        </mxCell>
        <mxCell id="j49G48L2qvxyTF0GT2EV-2" value="&lt;font style=&quot;font-size: 24px;&quot;&gt;USER&lt;/font&gt;" style="rounded=0;whiteSpace=wrap;html=1;" vertex="1" parent="1">
          <mxGeometry x="270" y="300" width="190" height="90" as="geometry" />
        </mxCell>
        <mxCell id="j49G48L2qvxyTF0GT2EV-3" value="&lt;font style=&quot;font-size: 24px;&quot;&gt;CONTACT&lt;/font&gt;" style="rounded=0;whiteSpace=wrap;html=1;" vertex="1" parent="1">
          <mxGeometry x="630" y="320" width="120" height="60" as="geometry" />
        </mxCell>
        <mxCell id="j49G48L2qvxyTF0GT2EV-4" value="&lt;font style=&quot;font-size: 18px;&quot;&gt;NAME&lt;/font&gt;" style="ellipse;whiteSpace=wrap;html=1;" vertex="1" parent="1">
          <mxGeometry x="180" y="105" width="130" height="80" as="geometry" />
        </mxCell>
        <mxCell id="j49G48L2qvxyTF0GT2EV-5" value="&lt;font style=&quot;font-size: 24px;&quot;&gt;&lt;u&gt;&lt;i&gt;ID&lt;/i&gt;&lt;/u&gt;&lt;/font&gt;" style="ellipse;whiteSpace=wrap;html=1;" vertex="1" parent="1">
          <mxGeometry x="30" y="110" width="130" height="70" as="geometry" />
        </mxCell>
        <mxCell id="j49G48L2qvxyTF0GT2EV-6" value="&lt;font style=&quot;font-size: 18px;&quot;&gt;PASSWORD&lt;/font&gt;" style="ellipse;whiteSpace=wrap;html=1;" vertex="1" parent="1">
          <mxGeometry x="20" y="320" width="130" height="90" as="geometry" />
        </mxCell>
        <mxCell id="j49G48L2qvxyTF0GT2EV-7" value="&lt;font style=&quot;font-size: 18px;&quot;&gt;EMAIL&lt;/font&gt;" style="ellipse;whiteSpace=wrap;html=1;" vertex="1" parent="1">
          <mxGeometry x="330" y="100" width="130" height="90" as="geometry" />
        </mxCell>
        <mxCell id="j49G48L2qvxyTF0GT2EV-9" value="&lt;font style=&quot;font-size: 18px;&quot;&gt;IMAGE&lt;/font&gt;" style="ellipse;whiteSpace=wrap;html=1;" vertex="1" parent="1">
          <mxGeometry x="20" y="200" width="130" height="90" as="geometry" />
        </mxCell>
        <mxCell id="j49G48L2qvxyTF0GT2EV-10" value="&lt;font style=&quot;font-size: 18px;&quot;&gt;DESCRIPTION&lt;/font&gt;" style="ellipse;whiteSpace=wrap;html=1;" vertex="1" parent="1">
          <mxGeometry x="30" y="430" width="130" height="90" as="geometry" />
        </mxCell>
        <mxCell id="j49G48L2qvxyTF0GT2EV-23" value="&lt;font style=&quot;font-size: 24px;&quot;&gt;about&lt;/font&gt;" style="ellipse;whiteSpace=wrap;html=1;" vertex="1" parent="1">
          <mxGeometry x="320" y="460" width="130" height="100" as="geometry" />
        </mxCell>
      </root>
    </mxGraphModel>
  </diagram>
</mxfile>
